<svg width="24" height="24" viewBox="0 0 24 24" fill="none" xmlns="http://www.w3.org/2000/svg">
<path d="M18.667 21.1667L13.667 21.1667L13.667 16.1667" stroke="#999999" stroke-width="1.25" stroke-linecap="round" stroke-linejoin="round"/>
<path d="M5.33301 2.83331L10.333 2.83331L10.333 7.83331" stroke="#999999" stroke-width="1.25" stroke-linecap="round" stroke-linejoin="round"/>
<path d="M14.5 4.92498C15.6944 5.34762 16.7622 6.06592 17.6038 7.01287C18.4455 7.95981 19.0335 9.10453 19.3131 10.3402C19.5927 11.5759 19.5547 12.8623 19.2027 14.0793C18.8507 15.2963 18.1961 16.4044 17.3 17.3L13.6667 21.1666M10.3334 2.83331L6.70002 6.69998C5.80395 7.5956 5.14936 8.70362 4.79733 9.92065C4.4453 11.1377 4.40731 12.4241 4.6869 13.6597C4.96649 14.8954 5.55455 16.0401 6.3962 16.9871C7.23785 17.934 8.30567 18.6523 9.50002 19.075" stroke="#999999" stroke-width="1.25" stroke-linecap="round" stroke-linejoin="round"/>
</svg>
