<svg width="13" height="12" viewBox="0 0 13 12" fill="none" xmlns="http://www.w3.org/2000/svg">
<path fill-rule="evenodd" clip-rule="evenodd" d="M0.8 0.512695C0.358172 0.512695 0 0.870867 0 1.3127V9.12519C0 9.56702 0.358172 9.92519 0.8 9.92519H4.44583C4.64806 9.92519 4.84201 10.0055 4.985 10.1485C5.128 10.2915 5.20833 10.4855 5.20833 10.6877C5.20833 11.1295 5.56651 11.4877 6.00833 11.4877C6.03595 11.4877 6.06323 11.4863 6.09013 11.4836C6.49353 11.4426 6.80833 11.1019 6.80833 10.6877C6.80834 10.4855 6.88867 10.2915 7.03167 10.1485C7.17467 10.0055 7.36861 9.92519 7.57084 9.92519H11.2167C11.6585 9.92519 12.0167 9.56702 12.0167 9.12519V1.3127C12.0167 0.870867 11.6585 0.512695 11.2167 0.512695H8.09167C7.32697 0.512695 6.59358 0.816474 6.05285 1.3572C6.03783 1.37222 6.02299 1.38739 6.00834 1.40271C5.99368 1.38739 5.97885 1.37222 5.96382 1.3572C5.42309 0.816474 4.68971 0.512695 3.925 0.512695H0.8ZM5.20833 3.39603V8.45162C4.96508 8.36867 4.7077 8.3252 4.44583 8.3252H1.6V2.1127H3.925C4.26536 2.1127 4.59178 2.2479 4.83245 2.48857C5.07312 2.72925 5.20833 3.05567 5.20833 3.39603ZM7.57084 8.3252C7.30897 8.3252 7.05159 8.36867 6.80834 8.45162V3.39603C6.80834 3.05567 6.94355 2.72925 7.18422 2.48857C7.42489 2.2479 7.75131 2.1127 8.09167 2.1127H10.4167V8.3252H7.57084Z" fill="#38B178"/>
</svg>
